<svg width="28" height="29" viewBox="0 0 28 29" fill="none" xmlns="http://www.w3.org/2000/svg">
<path fill-rule="evenodd" clip-rule="evenodd" d="M12.8807 0.14228C12.6155 -0.0470422 12.2623 -0.0476185 11.9968 0.141704L9.80808 1.70527C9.60442 1.85079 9.48159 2.09026 9.48159 2.3424V11.2878L8.40596 10.5164L3.39966 6.9285C3.13472 6.73947 2.78071 6.7386 2.51662 6.92793L0.326208 8.49265C0.122824 8.63759 0 8.87705 0 9.1292V17.5611C0 17.8141 0.121122 18.051 0.324506 18.1971L15.1536 28.8565C15.2867 28.9525 15.4413 29 15.5964 29C15.7533 29 15.909 28.9513 16.0421 28.8545L18.2373 27.2618C18.4398 27.1148 18.5581 26.88 18.5581 26.6276V17.6706L19.636 18.4484L24.6018 22.0317C24.8661 22.2227 25.2224 22.2239 25.4876 22.034L27.6738 20.4715C27.8777 20.326 28 20.0869 28 19.8344V11.4037C28 11.1512 27.8794 10.9129 27.6758 10.7674L12.8807 0.14228Z" fill="white"/>
</svg>
